<?xml version="1.0" encoding="utf-8"?>
<!-- Generator: Adobe Illustrator 19.0.0, SVG Export Plug-In . SVG Version: 6.00 Build 0)  -->
<!DOCTYPE svg PUBLIC "-//W3C//DTD SVG 1.1//EN" "http://www.w3.org/Graphics/SVG/1.1/DTD/svg11.dtd">
<svg version="1.1" id="Layer_1" xmlns="http://www.w3.org/2000/svg" xmlns:xlink="http://www.w3.org/1999/xlink" x="0px" y="0px"
	 viewBox="0 0 108 25" enable-background="new 0 0 108 25" xml:space="preserve">
<g>
	<path fill="#fff" d="M10.6,0h5l10.6,25h-5.7l-2.3-5.6H7.8L5.6,25H0L10.6,0z M16.4,14.6l-3.3-8l-3.3,8H16.4z"/>
	<path fill="#fff" d="M30.1,0.2h9.7C47.6,0.2,53,5.5,53,12.5v0.1c0,7-5.4,12.4-13.2,12.4h-9.7V0.2z M39.8,20.1c4.5,0,7.5-3,7.5-7.4v-0.1
		c0-4.4-3-7.5-7.5-7.5h-4.2v15H39.8z"/>
	<path fill="#fff" d="M57.9,0.2h9.7c7.8,0,13.2,5.4,13.2,12.3v0.1c0,7-5.4,12.4-13.2,12.4h-9.7V0.2z M67.5,20.1c4.5,0,7.5-3,7.5-7.4v-0.1
		c0-4.4-3-7.5-7.5-7.5h-4.2v15H67.5z"/>
	<path fill="#fff" d="M92.3,0h5L108,25h-5.7l-2.3-5.6H89.5L87.3,25h-5.6L92.3,0z M98.1,14.6l-3.3-8l-3.3,8H98.1z"/>
</g>
</svg>
